<svg xmlns="http://www.w3.org/2000/svg" fill="none" viewBox="0 0 189 62">
  <g clip-path="url(#YzGTvPS17a)" fill="#000">
    <path d="M63.66 33.624V13.585h1.886c1.536 0 2.781 1.266 2.781 2.828v8.91c3.023-2.741 5.593-3.838 9.018-3.909 6.57-.136 12.272 4.824 12.813 11.481.648 7.954-5.042 13.94-12.455 13.94-8.137 0-14.043-5.13-14.043-13.211zm4.59 1.573c.46 4.14 4.35 7.56 8.451 7.627 5.344.082 8.985-3.458 8.985-8.695s-3.56-8.695-8.752-8.695c-5.552-.012-9.315 4.087-8.684 9.763zm29.696-13.282v3.57c2.936-3.313 4.676-4.203 8.113-4.203 1 .001 1.998.083 2.986.244v4.74a11.89 11.89 0 00-3.234-.438c-2.489 0-4.578.828-6.11 2.393-1.344 1.37-1.743 2.443-1.743 4.596v13.199h-4.839v-24.1h4.827zm12.247 7.97c.249-2.347.697-3.618 1.69-4.84 1.992-2.484 5.576-3.763 10.651-3.763 4.032 0 6.969.637 9.01 2.004 1.694 1.122 2.39 2.786 2.39 5.717v10.703c0 2.347.599 3.175 2.24 3.13a9.809 9.809 0 001.096-.1v3.226a7.077 7.077 0 01-2.537.39c-3.035 0-4.428-.928-5.373-3.62-2.985 2.787-6.072 3.959-10.5 3.959-5.922 0-9.555-2.737-9.555-7.188-.026-2.538 1.443-4.846 3.731-5.862 1.792-.783 2.888-1.027 8.012-1.566 4.378-.438 5.127-.538 6.37-.931 1.344-.439 1.942-1.172 1.942-2.393 0-2.592-2.138-3.764-6.618-3.764-4.236 0-6.419.853-7.295 3.031a2.888 2.888 0 01-2.668 1.855l-2.586.012zm19.143 4.107a46.701 46.701 0 01-9.409 1.76c-4.329.439-5.673 1.271-5.673 3.47 0 2.442 1.992 3.726 5.922 3.726 3.234 0 5.674-.828 7.417-2.443 1.393-1.32 1.743-2.248 1.743-4.554v-1.959zm19.615 12.02h-1.246a2.847 2.847 0 01-2.582-1.632l-10.439-22.465h2.9a4.26 4.26 0 013.922 2.555l6.965 16.147 7.197-16.21a4.259 4.259 0 013.901-2.508h2.636l-10.684 22.506a2.847 2.847 0 01-2.57 1.607zm16.524-10.653c.497 4.645 4.073 7.527 9.405 7.527 3.026 0 5.294-.915 6.7-2.741a4.29 4.29 0 013.38-1.656h2.806c-2.443 5.473-6.818 8.164-13.339 8.164-8.145 0-13.636-5.034-13.636-12.561s5.625-12.806 13.738-12.806c5.869 0 10.59 2.687 12.492 7.187.847 2.07 1.193 3.909 1.193 6.89l-22.739-.004zm17.815-3.727c-1.095-4.252-4.329-6.649-8.81-6.649-4.48 0-7.714 2.397-8.858 6.65h17.668zM34.783.748c.353 0 .69.155.923.425l4.522 5.226.174-.032c1.09-.194 2.212-.265 3.29-.137 1.376.165 2.553.645 3.429 1.537a179.662 179.662 0 013.731 3.921c.407.444.5.961.32 1.412l-1.167 2.918 1.554 4.525c.081.236.091.49.029.732l-.064.246-.18.694-.642 2.48-1.948 7.53a2340.67 2340.67 0 00-2.775 10.789c-1.315 5.288-2.358 7.123-5.73 9.54-2.954 2.119-9.118 6.368-10.303 7.123-.114.072-.239.156-.405.27l-.467.325c-.576.397-.987.651-1.43.861-.562.267-1.1.415-1.645.415-.545 0-1.082-.148-1.644-.415-.443-.21-.854-.464-1.43-.86l-.468-.325a13.164 13.164 0 00-.404-.27c-1.185-.755-7.35-5.005-10.304-7.123-3.372-2.418-4.415-4.253-5.73-9.541-.241-.971-1.244-4.87-2.763-10.746A18420.756 18420.756 0 00.654 22.215l-.18-.694-.063-.246a1.273 1.273 0 01.028-.732l1.555-4.525L.827 13.1a1.268 1.268 0 01.24-1.325 120.136 120.136 0 011.123-1.208 180.9 180.9 0 012.688-2.8c.875-.892 2.053-1.372 3.43-1.537 1.077-.128 2.2-.057 3.288.137l.175.032 4.521-5.226c.234-.27.57-.425.924-.425h17.567zm-.556 2.504H17.772l-4.635 5.357c-.312.36-.798.507-1.253.378a9.893 9.893 0 00-.713-.155c-.873-.155-1.77-.212-2.577-.115-.872.104-1.542.377-1.975.819a177.662 177.662 0 00-3.215 3.366l1.044 2.61c.113.283.12.598.022.886l-1.584 4.61.147.57a26182.024 26182.024 0 012.591 10.01c1.534 5.935 2.536 9.829 2.78 10.812 1.184 4.757 1.937 6.082 4.762 8.108 2.92 2.094 9.053 6.321 10.192 7.047.143.091.291.19.48.32.07.05.382.266.466.324.476.328.795.525 1.09.665.262.124.465.18.605.18.14 0 .343-.056.606-.18.295-.14.614-.337 1.09-.665l.465-.323c.189-.13.337-.23.48-.321 1.14-.726 7.271-4.953 10.192-7.047 2.826-2.026 3.579-3.35 4.762-8.108.244-.983 1.246-4.877 2.77-10.769.63-2.442 1.295-5.01 1.959-7.575l.642-2.479.147-.57-1.583-4.61a1.272 1.272 0 01.022-.884l1.044-2.611a174.062 174.062 0 00-3.215-3.366c-.434-.442-1.104-.715-1.976-.82-.807-.096-1.704-.039-2.577.117a9.893 9.893 0 00-.713.154 1.217 1.217 0 01-1.253-.378l-4.634-5.357zm-8.228 35.027c.335 0 2.477.77 4.196 1.677 1.72.906 2.965 1.547 3.364 1.8.398.255.155.734-.208.995-.362.261-5.238 4.107-5.71 4.532-.474.426-1.17 1.128-1.642 1.128-.473 0-1.168-.702-1.641-1.128-.473-.425-5.348-4.27-5.71-4.532-.364-.261-.607-.74-.208-.994.398-.254 1.644-.895 3.363-1.801 1.72-.907 3.862-1.677 4.196-1.677zm.007-27.394c.087.002 1.039.027 2.433.5 1.464.498 3.05 1.12 3.782 1.12.732 0 6.16-1.057 6.16-1.057s6.434 7.924 6.434 9.617c0 1.693-.81 2.14-1.623 3.02l-4.824 5.22c-.456.493-1.406 1.242-.847 2.59.558 1.347 1.383 3.061.466 4.8-.917 1.74-2.488 2.9-3.494 2.708-1.006-.192-3.37-1.45-4.24-2.025-.869-.575-3.623-2.89-3.623-3.775 0-.886 2.847-2.476 3.373-2.837.527-.362 2.926-1.76 2.975-2.309.05-.549.03-.71-.677-2.066-.709-1.356-1.984-3.166-1.772-4.37.213-1.205 2.27-1.83 3.737-2.396 1.468-.564 4.294-1.63 4.647-1.797.353-.165.262-.323-.808-.427-1.069-.103-4.104-.514-5.472-.125-1.368.389-3.706.98-3.895 1.293-.19.314-.356.324-.162 1.405.195 1.082 1.196 6.27 1.293 7.192.097.922.287 1.53-.688 1.758-.976.227-2.618.622-3.182.622-.564 0-2.206-.395-3.181-.622-.976-.227-.786-.836-.689-1.758.098-.922 1.099-6.11 1.293-7.192.194-1.08.027-1.091-.162-1.405-.19-.313-2.527-.904-3.895-1.293-1.368-.389-4.403.022-5.472.125-1.07.104-1.16.262-.808.427.353.166 3.18 1.233 4.647 1.797 1.468.565 3.525 1.191 3.737 2.395.212 1.205-1.063 3.015-1.771 4.371-.709 1.356-.727 1.517-.678 2.066.049.55 2.449 1.947 2.975 2.309.526.36 3.374 1.951 3.374 2.837 0 .885-2.755 3.2-3.624 3.775-.87.575-3.233 1.833-4.24 2.025-1.006.192-2.577-.969-3.494-2.708-.916-1.739-.092-3.453.467-4.8.559-1.348-.391-2.097-.848-2.59l-4.824-5.22c-.814-.88-1.623-1.327-1.623-3.02 0-1.694 6.434-9.617 6.434-9.617s5.428 1.056 6.16 1.056c.732 0 2.318-.621 3.782-1.118 1.464-.497 2.44-.5 2.44-.5h.007z"/>
  </g>
  <defs>
    <clipPath id="YzGTvPS17a">
      <path fill="#fff" d="M0 0h189v62H0z"/>
    </clipPath>
  </defs>
</svg>
