<svg xmlns="http://www.w3.org/2000/svg" fill="none" viewBox="0 0 163 69">
  <path d="M21 47.51h12.949c11.564 0 14.082-7.022 14.082-13.185 0-6.479-3.11-12.87-14.082-12.87H21V47.51zm8.66-18.526h2.978c5.86 0 6.399 3.537 6.399 5.393 0 1.856-.514 5.603-6.399 5.603H29.66V28.984zm29.293-.77h5.556c1.439 0 1.953.823 1.953 1.909 0 1.085-.514 1.908-1.953 1.908h-5.556v-3.817zm0 10.68h4.014c2.801 0 3.778 1.647 3.778 4.448v4.168h8.71v-6.76c0-3.362-1.54-5.638-4.24-6.374 1.594-.56 4.164-2.206 4.164-6.128 0-4.763-2.955-6.794-7.76-6.794H50.292V47.51h8.66v-8.615zm28.006-17.439h-8.635V47.51h8.635V21.455zm19.129 18.491c7.17 0 9.251-4.553 9.251-9.35 0-4.868-2.03-9.14-9.251-9.14H89.923V47.51h8.66v-7.564h7.505zm-7.505-11.347h5.783c1.517 0 2.03.876 2.03 2.031 0 1.121-.513 2.031-2.03 2.031h-5.783V28.6zM129.797 48c10.485 0 13.967-4.693 13.967-9.21 0-5.323-2.724-7.915-10.1-8.195l-3.649-.105c-3.238-.105-3.906-.77-3.906-1.786v-.035c0-.945.476-1.646 3.457-1.646 3.238 0 3.662 1.471 3.739 2.417h9.765v-.245c0-4.308-3.701-8.195-13.62-8.195-9.071 0-13.029 3.484-13.029 8.072 0 4.097 1.774 7.967 9.457 8.247l3.803.14c3.624.175 3.983 1.016 3.983 2.101v.07c0 1.086-.668 2.101-3.751 2.101-3.367 0-3.804-1.96-3.881-3.186h-9.919v.315c0 3.362 2.557 9.14 13.684 9.14z" fill="#000"/>
</svg>
